<?xml version="1.0" encoding="UTF-8" standalone="no"?>
<!DOCTYPE svg PUBLIC "-//W3C//DTD SVG 1.1//EN" "http://www.w3.org/Graphics/SVG/1.1/DTD/svg11.dtd">
<svg width="100%" height="100%" viewBox="0 0 3268 457" version="1.1" xmlns="http://www.w3.org/2000/svg" xmlns:xlink="http://www.w3.org/1999/xlink" xml:space="preserve" style="fill-rule:evenodd;clip-rule:evenodd;stroke-linejoin:round;stroke-miterlimit:1.41421;">
    <g id="ArtBoard1" transform="matrix(1,0,0,1,-74.2543,-875.07)">
        <rect x="74.254" y="875.07" width="3267.06" height="456.883" style="fill:none;"/>
        <g>
            <path d="M1712.16,1253.48L1726.71,1253.48L1726.71,1095.55L1921.45,1095.55L1921.45,1253.48L1935.57,1253.48L1935.57,945.751L1921.45,945.751L1921.45,1082.71L1726.71,1082.71L1726.71,945.751L1712.16,945.751L1712.16,1253.48Z" style="fill:none;"/>
            <path d="M2003.62,945.751L2003.62,1146.06C2003.62,1182.29 2013.18,1210.11 2032.3,1229.52C2051.7,1249.77 2079.1,1259.9 2114.48,1259.9C2149.57,1259.9 2176.96,1249.77 2196.65,1229.52C2215.77,1209.54 2225.33,1181.72 2225.33,1146.06L2225.33,945.751L2211.2,945.751L2211.2,1139.21C2211.2,1172.88 2203.64,1198.99 2188.52,1217.53C2171.97,1237.51 2147.29,1247.49 2114.48,1247.49C2049.99,1247.49 2017.75,1211.4 2017.75,1139.21L2017.75,945.751L2003.62,945.751Z" style="fill:none;"/>
            <path d="M2292.95,1253.48L2386.68,1253.48C2426.06,1253.48 2454.02,1248.49 2470.57,1238.5C2493.97,1223.95 2505.67,1201.55 2505.67,1171.31C2505.67,1127.37 2482.84,1100.97 2437.19,1092.13C2472.28,1079.86 2489.83,1056.46 2489.83,1021.94C2489.83,992.831 2478.85,971.859 2456.88,959.019C2442.04,950.174 2415.5,945.751 2377.27,945.751L2292.95,945.751L2292.95,1253.48ZM2307.5,1240.64L2307.5,1098.98L2384.12,1098.98C2415.79,1098.98 2439.76,1102.83 2456.02,1110.53C2479.13,1121.37 2490.69,1140.78 2490.69,1168.74C2490.69,1201.27 2478.13,1222.67 2453.02,1232.94C2440.47,1238.08 2417.36,1240.64 2383.69,1240.64L2307.5,1240.64ZM2307.5,1087.85L2307.5,958.591L2378.12,958.591C2408.37,958.591 2430.34,961.73 2444.04,968.007C2464.87,977.423 2475.28,995.114 2475.28,1021.08C2475.28,1065.59 2443.18,1087.85 2378.98,1087.85L2307.5,1087.85Z" style="fill:none;"/>
            <path d="M2557.46,1253.48L2749.63,1253.48L2749.63,1239.79L2572.01,1239.79L2572.01,1099.83L2709.4,1099.83L2709.4,1086.56L2572.01,1086.56L2572.01,959.447L2745.35,959.447L2745.35,945.751L2557.46,945.751L2557.46,1253.48Z" style="fill:none;"/>
            <path d="M2907.56,1107.96C2928.96,1107.96 2944.65,1110.53 2954.64,1115.67C2967.48,1122.23 2975.47,1134.93 2978.61,1153.76C2978.89,1156.04 2979.11,1159.68 2979.25,1164.67C2979.39,1169.67 2979.46,1176.3 2979.46,1184.58L2979.46,1253.48L2996.16,1253.48L2995.73,1194.85C2995.73,1169.74 2995.59,1156.47 2995.3,1155.04C2992.45,1124.8 2978.04,1107.11 2952.07,1101.97C2989.16,1090.56 3007.71,1065.31 3007.71,1026.21C3007.71,994.829 2997.58,972.858 2977.32,960.303C2961.35,950.602 2936.38,945.751 2902.42,945.751L2800.13,945.751L2800.13,1253.48L2814.68,1253.48L2814.68,1107.96L2907.56,1107.96ZM2814.68,1095.12L2814.68,959.019L2902.42,959.019C2911.27,959.019 2918.97,959.233 2925.54,959.661C2932.1,960.089 2937.38,960.589 2941.37,961.159C2975.9,967.437 2993.16,989.55 2993.16,1027.5C2993.16,1072.58 2965.34,1095.12 2909.7,1095.12L2814.68,1095.12Z" style="fill:none;"/>
            <path d="M3133.97,1253.48L3148.52,1253.48L3148.52,959.019L3244.4,959.019L3244.4,945.751L3038.1,945.751L3038.1,959.019L3133.97,959.019L3133.97,1253.48Z" style="fill:none;"/>
            <path d="M171.784,1253.48L349.404,1253.48L349.404,1239.79L186.336,1239.79L186.336,945.751L171.784,945.751L171.784,1253.48Z" style="fill:rgb(21,21,21);fill-rule:nonzero;"/>
            <path d="M379.364,945.751L379.364,1146.06C379.364,1182.29 388.923,1210.11 408.04,1229.52C427.443,1249.77 454.835,1259.9 490.216,1259.9C525.312,1259.9 552.704,1249.77 572.392,1229.52C591.509,1209.54 601.068,1181.72 601.068,1146.06L601.068,945.751L586.944,945.751L586.944,1139.21C586.944,1172.88 579.383,1198.99 564.26,1217.53C547.711,1237.51 523.029,1247.49 490.216,1247.49C425.731,1247.49 393.488,1211.4 393.488,1139.21L393.488,945.751L379.364,945.751Z" style="fill:rgb(21,21,21);fill-rule:nonzero;"/>
            <path d="M668.692,1253.48L739.312,1253.48C783.539,1253.48 816.495,1248.49 838.18,1238.5C883.548,1217.1 906.232,1170.88 906.232,1099.83C906.232,1029.92 883.548,983.558 838.18,960.731C817.636,950.745 784.68,945.751 739.312,945.751L668.692,945.751L668.692,1253.48ZM683.244,1240.64L683.244,959.019L742.736,959.019C755.291,959.019 766.276,959.305 775.692,959.875C785.108,960.446 793.097,961.302 799.66,962.443C820.775,966.438 837.752,974.142 850.592,985.555C877.699,1010.09 891.252,1048.19 891.252,1099.83C891.252,1163.46 872.277,1205.26 834.328,1225.24C814.64,1235.51 784.109,1240.64 742.736,1240.64L683.244,1240.64Z" style="fill:rgb(21,21,21);fill-rule:nonzero;"/>
            <path d="M1017.94,1253.48L1032.49,1253.48L1108.68,1039.06L1184.86,1253.48L1199.41,1253.48L1281.59,945.751L1267.04,945.751L1192.14,1227.8L1115.52,1018.94L1101.83,1018.94L1025.64,1227.8L950.316,945.751L935.764,945.751L1017.94,1253.48Z" style="fill:rgb(21,21,21);fill-rule:nonzero;"/>
            <rect x="1322.25" y="945.751" width="14.124" height="307.732" style="fill:rgb(21,21,21);fill-rule:nonzero;"/>
            <path d="M1631.69,1019.8L1644.96,1013.38C1637.26,988.266 1622.56,969.291 1600.88,956.451C1580.9,944.753 1557.08,938.903 1529.4,938.903C1484.6,938.903 1450.51,955.167 1427.11,987.695C1406.28,1016.23 1395.86,1053.61 1395.86,1099.83C1395.86,1145.77 1406.42,1183.15 1427.54,1211.97C1450.93,1243.92 1484.89,1259.9 1529.4,1259.9C1549.66,1259.9 1568.78,1256.19 1586.75,1248.78C1631.55,1229.66 1653.95,1187.43 1653.95,1122.09C1653.95,1119.52 1653.95,1116.95 1653.95,1114.38C1653.95,1111.82 1653.81,1109.11 1653.52,1106.25L1538.39,1106.25L1538.39,1119.09L1639.82,1119.09L1639.82,1132.36C1639.82,1167.74 1630.27,1195.56 1611.15,1215.82C1591.46,1236.93 1564.21,1247.49 1529.4,1247.49C1489.74,1247.49 1459.35,1232.23 1438.24,1201.69C1419.98,1175.73 1410.84,1141.78 1410.84,1099.83C1410.84,1057.89 1419.98,1023.79 1438.24,997.539C1459.35,967.009 1489.74,951.743 1529.4,951.743C1583.9,951.743 1618,974.427 1631.69,1019.8Z" style="fill:rgb(21,21,21);fill-rule:nonzero;"/>
            <path d="M1712.16,1253.48L1726.71,1253.48L1726.71,1095.55L1921.45,1095.55L1921.45,1253.48L1935.57,1253.48L1935.57,945.751L1921.45,945.751L1921.45,1082.71L1726.71,1082.71L1726.71,945.751L1712.16,945.751L1712.16,1253.48Z" style="fill:rgb(21,21,21);fill-rule:nonzero;stroke:rgb(21,21,21);stroke-width:9px;"/>
            <path d="M2003.62,945.751L2003.62,1146.06C2003.62,1182.29 2013.18,1210.11 2032.3,1229.52C2051.7,1249.77 2079.1,1259.9 2114.48,1259.9C2149.57,1259.9 2176.96,1249.77 2196.65,1229.52C2215.77,1209.54 2225.33,1181.72 2225.33,1146.06L2225.33,945.751L2211.2,945.751L2211.2,1139.21C2211.2,1172.88 2203.64,1198.99 2188.52,1217.53C2171.97,1237.51 2147.29,1247.49 2114.48,1247.49C2049.99,1247.49 2017.75,1211.4 2017.75,1139.21L2017.75,945.751L2003.62,945.751Z" style="fill:rgb(21,21,21);fill-rule:nonzero;stroke:rgb(21,21,21);stroke-width:9px;"/>
            <path d="M2292.95,1253.48L2386.68,1253.48C2426.06,1253.48 2454.02,1248.49 2470.57,1238.5C2493.97,1223.95 2505.67,1201.55 2505.67,1171.31C2505.67,1127.37 2482.84,1100.97 2437.19,1092.13C2472.28,1079.86 2489.83,1056.46 2489.83,1021.94C2489.83,992.831 2478.85,971.859 2456.88,959.019C2442.04,950.174 2415.5,945.751 2377.27,945.751L2292.95,945.751L2292.95,1253.48ZM2307.5,1240.64L2307.5,1098.98L2384.12,1098.98C2415.79,1098.98 2439.76,1102.83 2456.02,1110.53C2479.13,1121.37 2490.69,1140.78 2490.69,1168.74C2490.69,1201.27 2478.13,1222.67 2453.02,1232.94C2440.47,1238.08 2417.36,1240.64 2383.69,1240.64L2307.5,1240.64ZM2307.5,1087.85L2307.5,958.591L2378.12,958.591C2408.37,958.591 2430.34,961.73 2444.04,968.007C2464.87,977.423 2475.28,995.114 2475.28,1021.08C2475.28,1065.59 2443.18,1087.85 2378.98,1087.85L2307.5,1087.85Z" style="fill:rgb(21,21,21);fill-rule:nonzero;stroke:rgb(21,21,21);stroke-width:9px;"/>
            <path d="M2557.46,1253.48L2749.63,1253.48L2749.63,1239.79L2572.01,1239.79L2572.01,1099.83L2709.4,1099.83L2709.4,1086.56L2572.01,1086.56L2572.01,959.447L2745.35,959.447L2745.35,945.751L2557.46,945.751L2557.46,1253.48Z" style="fill:rgb(21,21,21);fill-rule:nonzero;stroke:rgb(21,21,21);stroke-width:9px;"/>
            <path d="M2907.56,1107.96C2928.96,1107.96 2944.65,1110.53 2954.64,1115.67C2967.48,1122.23 2975.47,1134.93 2978.61,1153.76C2978.89,1156.04 2979.11,1159.68 2979.25,1164.67C2979.39,1169.67 2979.46,1176.3 2979.46,1184.58L2979.46,1253.48L2996.16,1253.48L2995.73,1194.85C2995.73,1169.74 2995.59,1156.47 2995.3,1155.04C2992.45,1124.8 2978.04,1107.11 2952.07,1101.97C2989.16,1090.56 3007.71,1065.31 3007.71,1026.21C3007.71,994.829 2997.58,972.858 2977.32,960.303C2961.35,950.602 2936.38,945.751 2902.42,945.751L2800.13,945.751L2800.13,1253.48L2814.68,1253.48L2814.68,1107.96L2907.56,1107.96ZM2814.68,1095.12L2814.68,959.019L2902.42,959.019C2911.27,959.019 2918.97,959.233 2925.54,959.661C2932.1,960.089 2937.38,960.589 2941.37,961.159C2975.9,967.437 2993.16,989.55 2993.16,1027.5C2993.16,1072.58 2965.34,1095.12 2909.7,1095.12L2814.68,1095.12Z" style="fill:rgb(21,21,21);fill-rule:nonzero;stroke:rgb(21,21,21);stroke-width:9px;"/>
            <path d="M3133.97,1253.48L3148.52,1253.48L3148.52,959.019L3244.4,959.019L3244.4,945.751L3038.1,945.751L3038.1,959.019L3133.97,959.019L3133.97,1253.48Z" style="fill:rgb(21,21,21);fill-rule:nonzero;stroke:rgb(21,21,21);stroke-width:9px;"/>
        </g>
    </g>
</svg>
