<svg id="Sy8e7Mn9M4z" data-name="Ebene 1" xmlns="http://www.w3.org/2000/svg" viewBox="0 0 1561.78 77.5">
    <style>
        #SyPeXG25GNM{fill: #fff;transform:  translate(-15.11px, -14.2px);}#HJOl7G3cGEM{fill: #fff;transform:  translate(-15.11px, -14.2px);}#ByFgXMn9fVG{fill: #fff;transform:  translate(-15.11px, -14.2px);}#Bk9emGn5zNf{fill: #fff;transform:  translate(-15.11px, -14.2px);}#BJjlQGhcGVG{fill: #fff;transform:  translate(-15.11px, -14.2px);}#Hy3xQf3cfEf{fill: #fff;transform:  translate(-15.11px, -14.2px);}#B1Tl7f29M4M{fill: #fff;transform:  translate(-15.11px, -14.2px);}#rJAemG2czNz{fill: #fff;transform:  translate(-15.11px, -14.2px);}#Bk1WXfhqf4M{fill: #fff;transform:  translate(-15.11px, -14.2px);}#r1eW7fhqGVf{fill: #fff;transform:  translate(-15.11px, -14.2px);}#S1bbXG25zNM{fill: #fff;transform:  translate(-15.11px, -14.2px);}#BkMbmzn9GNf{fill: #fff;transform:  translate(-15.11px, -14.2px);}#BkQZQz3qGNG{fill: #fff;transform:  translate(-15.11px, -14.2px);}#S1NWXM2cG4G{fill: #fff;transform:  translate(-15.11px, -14.2px);}#S1HbXf39z4M{fill: #fff;transform:  translate(-15.11px, -14.2px);}#rkIWmGncfVM{fill: #fff;transform:  translate(-15.11px, -14.2px);}#ryDZmGn9GVG{fill: #fff;transform:  translate(-15.11px, -14.2px);}#B1uZXfhqGNM{fill: #fff;transform:  translate(-15.11px, -14.2px);}#BkYbXf25MNG{fill: #fff;transform:  translate(-15.11px, -14.2px);}#H1q-7z3qG4M{fill: #fff;transform:  translate(-15.11px, -14.2px);}#SksW7fncf4f{fill: #fff;transform:  translate(-15.11px, -14.2px);}#H1hbQzh5fEf{fill: #fff;transform:  translate(-15.11px, -14.2px);}#Sy6bXfh5G4f{fill: none;stroke: #fff;stroke-miterlimit: 10;stroke-width: 0.5px;}#r1Cbmz29G4z{fill: none;stroke: #fff;stroke-miterlimit: 10;stroke-width: 0.5px;}

	@keyframes r1Cbmz29G4zAnimation {
		0% {
			transform: translate(2000px, 0px);
		}
		16.67% {
			transform: translate(0px, 0px);
		}
		83.33% {
			transform: translate(0px, 0px);
		}
		100% {
			transform: translate(-2000px, 0px);
		}
	}

	#r1Cbmz29G4z {
		transform-origin: 50% 50% !important;
		animation: r1Cbmz29G4zAnimation 3s linear;
	}
    </style>
    <svg id="Sy8e7Mn9M4z" data-name="Ebene 1" xmlns="http://www.w3.org/2000/svg" viewBox="0 0 1561.78 77.5">
        <defs>
        </defs>
        <title>
            ludwig-hubert-fotografie-schriftzug
        </title>
        <path class="cls-1" d="M31.51,19.59v52.8h35.7v15.2H15.11v-68Z" id="SyPeXG25GNM"/>
        <path class="cls-1" d="M137.11,19.59v33.1q0,16.61-9.3,26.35t-23.9,9.75q-14.61,0-23.5-9.7t-8.9-26.4V19.59h16.4v33.1q0,9.9,4.15,15.4t11.85,5.5A14.74,14.74,0,0,0,116.06,68q4.44-5.55,4.45-15.35V19.59Z" id="HJOl7G3cGEM"/>
        <path class="cls-1" d="M179,19.59q16.5-.11,26.2,9.4t9.7,24.5q0,14.9-10,24.5T179,87.59h-30.1V19.69Zm-13.7,15.2v37.6H179q8.6,0,14-5.2t5.35-13.7q0-9-5.2-13.85T179,34.79Z" id="ByFgXMn9fVG"/>
        <path class="cls-1" d="M308.21,19.59h17.6l-25.5,68h-16.8l-14.3-44.3-16,44.3h-17l-22.6-68h17.5l14.1,44.1,15.5-44.1h17.9l13.8,43.9Z" id="Bk9emGn5zNf"/>
        <path class="cls-1" d="M353.51,19.59v68h-16.4v-68Z" id="BJjlQGhcGVG"/>
        <path class="cls-1" d="M402.31,18.39a38,38,0,0,1,17.4,3.95,37.44,37.44,0,0,1,13.1,11l-14.2,7.2q-5.31-6.7-16.5-6.7-8.91,0-14.55,5.55a18.85,18.85,0,0,0-5.65,14,20,20,0,0,0,20.4,20.1q10.69,0,16.7-5.7v-6.6h-20.7V48.59h35.2v25.2a22,22,0,0,1-1.5,1.95,31.9,31.9,0,0,1-3.95,3.75,44.54,44.54,0,0,1-6.2,4.3,41.15,41.15,0,0,1-19.45,5q-16.31,0-26.65-10.45a34,34,0,0,1-10.35-24.75A33.59,33.59,0,0,1,376,28.79Q386.51,18.4,402.31,18.39Z" id="Hy3xQf3cfEf"/>
        <path class="cls-1" d="M532.4,19.59v68H515.9V61.19H486v26.4H469.61v-68H486V46h29.9V19.59Z" id="B1Tl7f29M4M"/>
        <path class="cls-1" d="M609.8,19.59v33.1q0,16.61-9.3,26.35t-23.89,9.75q-14.61,0-23.5-9.7t-8.9-26.4V19.59h16.4v33.1q0,9.9,4.14,15.4t11.86,5.5A14.71,14.71,0,0,0,588.75,68q4.46-5.55,4.46-15.35V19.59Z" id="rJAemG2czNz"/>
        <path class="cls-1" d="M670.6,51.29q10.2,5.1,10.2,16.5,0,9-6.25,14.4t-19.45,5.4H621.6v-68h29.5q25.9,0,25.9,18.7a15,15,0,0,1-2.2,8.05A16.58,16.58,0,0,1,670.6,51.29Zm-18.5-3.5q5.21,0,7.25-1.7t2-5.7q0-6.8-9.3-6.8H638v14.2Zm11,19.1q0-3.6-2.4-5.1t-7.5-1.5H638v13.2h15.2Q663.1,73.49,663.1,66.89Z" id="Bk1WXfhqf4M"/>
        <path class="cls-1" d="M692.3,19.59h52.1v15.2H708.7v11.7h29.8v14.2H708.7v11.7h35.7v15.2H692.3Z" id="r1eW7fhqGVf"/>
        <path class="cls-1" d="M789.6,19.59a23,23,0,0,1,17.3,7.2q6.9,7.2,6.9,18.3a26.29,26.29,0,0,1-3.3,13.15,22.24,22.24,0,0,1-8.8,8.85l14,20.5H795.3l-10.2-16.9h-12v16.9H756.7v-68Zm-2.3,15.2H773.1v20.7h14.1a9.6,9.6,0,0,0,7.15-3.05,10.17,10.17,0,0,0,2.95-7.35,10.05,10.05,0,0,0-2.95-7.25A9.49,9.49,0,0,0,787.3,34.79Z" id="S1bbXG25zNM"/>
        <path class="cls-1" d="M884.2,19.59v15.2H860.1v52.8H843.5V34.79H819.4V19.59Z" id="BkMbmzn9GNf"/>
        <path class="cls-1" d="M971.2,19.59v15.2H935.5v15.6h29.8v15.1H935.5v22.1H919.1v-68Z" id="BkQZQz3qGNG"/>
        <path class="cls-1" d="M1009.7,18.39a33.72,33.72,0,0,1,24.8,10.35,34,34,0,0,1,10.3,24.85,34,34,0,0,1-10.3,24.85,35,35,0,0,1-49.65,0,34,34,0,0,1-10.25-24.9,34.06,34.06,0,0,1,10.25-24.85A33.68,33.68,0,0,1,1009.7,18.39Zm0,15.3a19.44,19.44,0,0,0-14.2,5.85,19.09,19.09,0,0,0-5.9,14.05,19.21,19.21,0,0,0,5.9,14.15,19.44,19.44,0,0,0,14.2,5.85,20,20,0,0,0,19.9-20,20,20,0,0,0-19.9-19.9Z" id="S1NWXM2cG4G"/>
        <path class="cls-1" d="M1112.9,19.59v15.2h-24.1v52.8h-16.6V34.79h-24.1V19.59Z" id="S1HbXf39z4M"/>
        <path class="cls-1" d="M1150.8,18.39a33.74,33.74,0,0,1,24.8,10.35,34,34,0,0,1,10.3,24.85,34,34,0,0,1-10.3,24.85,35,35,0,0,1-49.65,0,34,34,0,0,1-10.25-24.9A34,34,0,0,1,1126,28.74,33.66,33.66,0,0,1,1150.8,18.39Zm0,15.3a19.42,19.42,0,0,0-14.2,5.85,19.09,19.09,0,0,0-5.9,14.05,19.21,19.21,0,0,0,5.9,14.15,19.42,19.42,0,0,0,14.2,5.85,20,20,0,0,0,19.9-20,20,20,0,0,0-19.9-19.9Z" id="rkIWmGncfVM"/>
        <path class="cls-1" d="M1230.3,18.39a38,38,0,0,1,17.4,3.95,37.44,37.44,0,0,1,13.1,11l-14.2,7.2q-5.31-6.7-16.5-6.7-8.91,0-14.55,5.55a18.85,18.85,0,0,0-5.65,14,20,20,0,0,0,20.4,20.1q10.7,0,16.7-5.7v-6.6h-20.7V48.59h35.2v25.2a22,22,0,0,1-1.5,1.95,31.9,31.9,0,0,1-4,3.75,44.54,44.54,0,0,1-6.2,4.3,41.15,41.15,0,0,1-19.45,5q-16.31,0-26.65-10.45a34,34,0,0,1-10.35-24.75A33.59,33.59,0,0,1,1204,28.79Q1214.49,18.4,1230.3,18.39Z" id="ryDZmGn9GVG"/>
        <path class="cls-1" d="M1306.8,19.59a23,23,0,0,1,17.3,7.2q6.9,7.2,6.9,18.3a26.29,26.29,0,0,1-3.3,13.15,22.3,22.3,0,0,1-8.8,8.85l14,20.5h-20.4l-10.2-16.9h-12v16.9h-16.4v-68Zm-2.3,15.2h-14.2v20.7h14.1a9.6,9.6,0,0,0,7.15-3.05,10.21,10.21,0,0,0,3-7.35,10.09,10.09,0,0,0-3-7.25A9.49,9.49,0,0,0,1304.5,34.79Z" id="B1uZXfhqGNM"/>
        <path class="cls-1" d="M1399.7,87.59,1395.29,77H1362.5l-4.5,10.6h-17.41l29.11-68H1388l29.2,68Zm-31.5-24h21.39L1379,38.19Z" id="BkYbXf25MNG"/>
        <path class="cls-1" d="M1480.39,19.59v15.2h-35.7v15.6h29.8v15.1h-29.8v22.1h-16.4v-68Z" id="H1q-7z3qG4M"/>
        <path class="cls-1" d="M1509.59,19.59v68h-16.4v-68Z" id="SksW7fncf4f"/>
        <path class="cls-1" d="M1524.79,19.59h52.1v15.2h-35.7v11.7H1571v14.2h-29.8v11.7h35.7v15.2h-52.1Z" id="H1hbQzh5fEf"/>
        <line id="Sy6bXfh5G4f" class="cls-2" x1="0.29" y1="0.25" x2="870.29" y2="0.25"/>
        <line id="r1Cbmz29G4z" class="cls-2" x1="1561.29" y1="77.25" x2="455.29" y2="77.25"/>
    </svg>
</svg>